<?xml version="1.0" standalone="no"?>
<!DOCTYPE svg PUBLIC "-//W3C//DTD SVG 20010904//EN"
 "http://www.w3.org/TR/2001/REC-SVG-20010904/DTD/svg10.dtd">
<svg version="1.0" xmlns="http://www.w3.org/2000/svg"
 width="48.000000pt" height="48.000000pt" viewBox="0 0 48.000000 48.000000"
 preserveAspectRatio="xMidYMid meet">

<g transform="translate(0.000000,48.000000) scale(0.100000,-0.100000)"
fill="#000000" stroke="none">
<path d="M247 341 c-6 -25 0 -31 29 -31 13 0 26 -4 29 -10 3 -5 -1 -10 -9 -10
-9 0 -16 -5 -16 -11 0 -5 4 -8 9 -4 5 3 12 1 16 -5 4 -7 12 -7 24 0 10 5 22 6
25 2 11 -10 40 -8 48 3 4 6 8 -2 8 -17 0 -20 -4 -26 -15 -22 -11 5 -17 -3 -21
-25 -4 -21 -11 -30 -20 -27 -7 3 -15 0 -18 -7 -2 -7 -5 -1 -5 12 -1 13 2 21 6
18 6 -7 33 11 33 22 0 4 -18 6 -40 4 -22 -1 -40 2 -40 8 0 5 -7 9 -15 9 -8 0
-15 -4 -15 -10 0 -6 -23 -10 -52 -9 -76 2 -75 2 -72 -33 3 -30 2 -29 -8 7 -13
50 -14 51 -32 32 -8 -8 -12 -17 -9 -21 4 -3 -7 -6 -24 -6 -17 0 -36 7 -43 15
-13 16 -5 52 13 58 7 2 6 4 -2 3 -48 -3 -33 -85 16 -87 36 -1 68 -13 68 -26 0
-28 94 -84 138 -82 14 0 6 6 -23 17 -56 22 -67 52 -20 52 27 0 32 -3 27 -20
-4 -17 0 -20 27 -20 17 0 48 9 68 19 19 11 39 17 42 14 3 -4 6 1 6 10 0 20 15
29 60 37 33 5 35 8 38 48 2 24 -1 42 -7 42 -6 0 -8 -7 -5 -15 5 -11 1 -14 -12
-9 -18 5 -18 5 0 -10 24 -20 14 -46 -19 -46 -15 0 -24 4 -20 10 3 5 12 7 20 3
20 -7 19 7 -2 22 -15 11 -15 15 -4 29 12 14 10 16 -20 16 -22 0 -42 9 -61 27
-15 15 -34 28 -41 29 -6 2 -22 6 -33 9 -16 5 -23 2 -27 -14z m-55 -130 c-8 -4
-13 -11 -12 -15 1 -4 -1 -12 -3 -19 -3 -6 -6 0 -6 16 -1 19 4 27 17 27 13 0
14 -2 4 -9z m43 -4 c-11 -9 -15 -19 -10 -27 5 -9 4 -11 -3 -6 -16 10 -15 33 1
39 24 10 31 7 12 -6z m32 -29 c-3 -7 -5 -2 -5 12 0 14 2 19 5 13 2 -7 2 -19 0
-25z m50 10 c-3 -8 -6 -5 -6 6 -1 11 2 17 5 13 3 -3 4 -12 1 -19z"/>
<path d="M150 314 c-15 -15 -34 -24 -50 -23 -43 2 -46 -1 -16 -16 24 -13 31
-13 38 -3 5 9 8 5 8 -11 0 -23 1 -24 14 -6 13 18 13 18 23 0 10 -17 11 -17 18
5 6 18 9 20 16 9 6 -10 11 -11 17 -3 4 6 14 14 22 17 12 4 11 6 -2 6 -13 1
-18 9 -18 29 l-1 27 -15 -27 c-18 -35 -28 -36 -22 -3 7 32 -2 32 -32 -1z"/>
<path d="M33 254 c-3 -8 -1 -20 5 -26 16 -16 42 -2 42 22 0 24 -38 28 -47 4z"/>
</g>
</svg>
