<?xml version="1.0" standalone="no"?>
<!DOCTYPE svg PUBLIC "-//W3C//DTD SVG 20010904//EN"
 "http://www.w3.org/TR/2001/REC-SVG-20010904/DTD/svg10.dtd">
<svg version="1.0" xmlns="http://www.w3.org/2000/svg"
 width="112.000000pt" height="112.000000pt" viewBox="0 0 112.000000 112.000000"
 preserveAspectRatio="xMidYMid meet">
<metadata>
Created by potrace 1.14, written by Peter Selinger 2001-2017
</metadata>
<g transform="translate(0.000000,112.000000) scale(0.100000,-0.100000)"
fill="#000000" stroke="none">
<path d="M539 882 c-13 -15 -24 -31 -24 -35 0 -4 -5 -11 -10 -15 -14 -10 -52
-91 -60 -130 -4 -18 -10 -30 -15 -27 -11 7 6 71 31 118 12 21 19 40 16 43 -18
19 -137 -71 -178 -135 -18 -28 -63 -35 -97 -14 -12 8 -26 12 -31 9 -4 -3 -27
-6 -51 -8 -51 -3 -101 -33 -114 -69 -5 -14 -6 -46 -2 -70 9 -62 55 -93 131
-90 29 1 56 -3 60 -9 3 -6 11 -8 16 -5 5 4 9 1 9 -4 0 -6 9 -11 19 -11 11 0
23 -5 26 -10 9 -14 -4 -52 -16 -45 -5 4 -9 1 -9 -4 0 -6 6 -11 13 -12 45 -3
61 -7 65 -18 8 -23 68 -72 121 -98 43 -21 69 -27 125 -28 71 0 166 26 166 46
0 5 -10 4 -22 -2 -13 -7 -55 -13 -94 -13 -59 0 -79 5 -115 26 -24 14 -54 38
-67 52 -19 23 -20 27 -7 32 9 4 18 4 21 1 4 -3 17 -2 30 3 14 6 26 6 29 0 3
-5 12 -7 20 -3 19 7 53 -6 39 -15 -10 -7 -44 -58 -44 -66 0 -3 8 -5 18 -5 9 0
37 0 62 -1 86 -3 141 14 191 58 25 21 43 28 67 27 37 -2 49 13 34 41 -8 15 -2
21 41 42 38 17 61 22 85 17 20 -4 39 -1 48 6 8 6 14 8 14 4 0 -5 9 2 20 15 17
20 20 37 20 123 0 90 -2 98 -16 86 -10 -8 -49 -14 -107 -15 l-92 -1 -95 97
c-92 94 -145 138 -156 128 -2 -3 7 -16 21 -29 29 -28 33 -44 8 -34 -10 4 -27
9 -38 11 -79 16 -73 21 -89 -79 -7 -43 0 -48 67 -52 42 -2 127 -31 107 -36
-28 -7 -191 -2 -193 6 -9 22 3 133 18 174 8 24 14 46 12 47 -2 2 -14 -8 -28
-24z"/>
</g>
</svg>
